<svg width="80" height="80" viewBox="0 0 80 80" fill="none" xmlns="http://www.w3.org/2000/svg">
<path d="M23.9985 17.2594C24.327 16.9343 24.5846 16.5447 24.755 16.1152C24.9254 15.6856 25.005 15.2254 24.9887 14.7636C24.9724 14.3017 24.8606 13.8483 24.6603 13.4318C24.46 13.0153 24.1756 12.6448 23.8251 12.3438C22.0608 10.8381 19.8194 10.0075 17.5001 10L16.9891 10.0141H16.9141C11.6251 10.3359 7.50007 14.9297 7.51101 20.4688C7.51101 23.4375 8.76101 25.0094 9.74851 26.2672C10.0255 26.6189 10.3729 26.909 10.7684 27.1188C11.1639 27.3287 11.5988 27.4537 12.0454 27.4859C12.086 27.4859 12.1548 27.4938 12.3579 27.4938C12.7595 27.4932 13.1569 27.4113 13.5262 27.2532C13.8954 27.095 14.2288 26.8638 14.5063 26.5734L23.9985 17.2594ZM63.0923 10.0172L62.5813 10.0016H62.5001C60.1785 10.0076 57.9347 10.8383 56.1688 12.3453C55.8187 12.6464 55.5348 13.0167 55.3348 13.4329C55.1348 13.8491 55.0232 14.3022 55.0069 14.7636C54.9906 15.2251 55.07 15.6849 55.2402 16.1141C55.4103 16.5434 55.6674 16.9328 55.9954 17.2578L65.4907 26.5781C65.7688 26.8695 66.1032 27.1015 66.4735 27.2599C66.8439 27.4184 67.2425 27.5001 67.6454 27.5C67.8454 27.5 67.9141 27.5 67.9579 27.4922C68.4042 27.4597 68.8388 27.3346 69.234 27.1248C69.6292 26.9149 69.9763 26.625 70.2532 26.2734C71.2469 25.0156 72.4844 23.4484 72.4907 20.475C72.5001 14.9297 68.3751 10.3359 63.0923 10.0172Z" fill="#FF251D"/>
<path d="M40.0109 15C24.8546 15 12.5109 27.3359 12.5109 42.5C12.5055 48.9293 14.7629 55.1555 18.8875 60.0875L13.2437 65.7328C13.006 65.9637 12.8166 66.2396 12.6865 66.5444C12.5565 66.8492 12.4883 67.1768 12.4859 67.5081C12.4836 67.8395 12.5471 68.168 12.6729 68.4746C12.7986 68.7812 12.9841 69.0597 13.2185 69.294C13.4528 69.5283 13.7314 69.7136 14.0381 69.8392C14.3447 69.9649 14.6733 70.0283 15.0047 70.0258C15.336 70.0233 15.6636 69.9549 15.9683 69.8247C16.273 69.6945 16.5488 69.505 16.7796 69.2672L22.4234 63.6234C27.358 67.7434 33.5825 70.0002 40.0109 70.0002C46.4393 70.0002 52.6637 67.7434 57.5984 63.6234L63.2437 69.2672C63.4745 69.505 63.7503 69.6945 64.055 69.8247C64.3597 69.9549 64.6873 70.0233 65.0187 70.0258C65.35 70.0283 65.6786 69.9649 65.9853 69.8392C66.2919 69.7136 66.5705 69.5283 66.8049 69.294C67.0392 69.0597 67.2247 68.7812 67.3505 68.4746C67.4762 68.168 67.5398 67.8395 67.5374 67.5081C67.5351 67.1768 67.4669 66.8492 67.3368 66.5444C67.2067 66.2396 67.0173 65.9637 66.7796 65.7328L61.1343 60.0875C65.2596 55.1559 67.5171 48.9295 67.5109 42.5C67.5109 27.3437 55.175 15 40.0109 15ZM42.5109 42.5C42.5109 43.163 42.2475 43.7989 41.7787 44.2678C41.3098 44.7366 40.6739 45 40.0109 45H27.5109C26.8478 45 26.212 44.7366 25.7431 44.2678C25.2743 43.7989 25.0109 43.163 25.0109 42.5C25.0109 41.837 25.2743 41.2011 25.7431 40.7322C26.212 40.2634 26.8478 40 27.5109 40H37.5109V25C37.5109 24.337 37.7743 23.7011 38.2431 23.2322C38.712 22.7634 39.3478 22.5 40.0109 22.5C40.6739 22.5 41.3098 22.7634 41.7787 23.2322C42.2475 23.7011 42.5109 24.337 42.5109 25V42.5Z" fill="#FF251D"/>
</svg>
