<svg width="32" height="32" viewBox="0 0 32 32" fill="none" xmlns="http://www.w3.org/2000/svg">
<path d="M16.0001 5.33325H6.66675C5.60588 5.33325 4.58847 5.75468 3.83832 6.50482C3.08818 7.25497 2.66675 8.27239 2.66675 9.33325V19.9999C2.66675 21.0608 3.08818 22.0782 3.83832 22.8283C4.58847 23.5785 5.60588 23.9999 6.66675 23.9999L5.33341 25.3333V26.6666H6.66675L9.33341 23.9599L12.0001 23.9999V17.3333H5.33341V7.99992H17.3334V10.6666H20.0001V9.33325C20.0001 8.27239 19.5787 7.25497 18.8285 6.50482C18.0784 5.75468 17.0609 5.33325 16.0001 5.33325ZM6.66675 18.6666C7.02037 18.6666 7.35951 18.8071 7.60956 19.0571C7.8596 19.3072 8.00008 19.6463 8.00008 19.9999C8.00008 20.3535 7.8596 20.6927 7.60956 20.9427C7.35951 21.1928 7.02037 21.3333 6.66675 21.3333C6.31313 21.3333 5.97399 21.1928 5.72394 20.9427C5.47389 20.6927 5.33341 20.3535 5.33341 19.9999C5.33341 19.6463 5.47389 19.3072 5.72394 19.0571C5.97399 18.8071 6.31313 18.6666 6.66675 18.6666ZM27.4267 12.8799C27.2401 12.3466 26.7334 11.9999 26.1334 11.9999H16.5467C15.9334 11.9999 15.4401 12.3466 15.2401 12.8799L13.3334 18.3599V25.7066C13.3334 26.2133 13.7601 26.6666 14.2667 26.6666H15.0934C15.6001 26.6666 16.0001 26.1599 16.0001 25.6533V23.9999H26.6667V25.6533C26.6667 26.1599 27.0801 26.6666 27.5867 26.6666H28.4001C28.9067 26.6666 29.3334 26.2133 29.3334 25.7066V18.3599L27.4267 12.8799ZM16.5467 13.3333H26.1334L27.5067 17.3333H15.1734L16.5467 13.3333ZM16.0001 21.3333C15.6465 21.3333 15.3073 21.1928 15.0573 20.9427C14.8072 20.6927 14.6667 20.3535 14.6667 19.9999C14.6667 19.6463 14.8072 19.3072 15.0573 19.0571C15.3073 18.8071 15.6465 18.6666 16.0001 18.6666C16.3537 18.6666 16.6928 18.8071 16.9429 19.0571C17.1929 19.3072 17.3334 19.6463 17.3334 19.9999C17.3334 20.3535 17.1929 20.6927 16.9429 20.9427C16.6928 21.1928 16.3537 21.3333 16.0001 21.3333ZM26.6667 21.3333C26.3131 21.3333 25.974 21.1928 25.7239 20.9427C25.4739 20.6927 25.3334 20.3535 25.3334 19.9999C25.3334 19.6463 25.4739 19.3072 25.7239 19.0571C25.974 18.8071 26.3131 18.6666 26.6667 18.6666C27.0204 18.6666 27.3595 18.8071 27.6096 19.0571C27.8596 19.3072 28.0001 19.6463 28.0001 19.9999C28.0001 20.3535 27.8596 20.6927 27.6096 20.9427C27.3595 21.1928 27.0204 21.3333 26.6667 21.3333Z" fill="#88949F"/>
</svg>
