<svg width="24" height="24" viewBox="0 0 24 24" fill="none" xmlns="http://www.w3.org/2000/svg">
<path d="M14.0001 18C14.2653 18 14.5196 17.8947 14.7072 17.7071C14.8947 17.5196 15.0001 17.2652 15.0001 17L15.0001 5.41002L17.2901 7.71002C17.4784 7.89832 17.7338 8.00411 18.0001 8.00411C18.2664 8.00411 18.5218 7.89832 18.7101 7.71002C18.8984 7.52172 19.0042 7.26632 19.0042 7.00002C19.0042 6.73372 18.8984 6.47832 18.7101 6.29002L14.7101 2.29002C14.5694 2.15126 14.3909 2.05726 14.1969 2.01989C14.0029 1.98252 13.8022 2.00344 13.6201 2.08002C13.4374 2.15504 13.2811 2.28244 13.1708 2.44616C13.0604 2.60988 13.001 2.80259 13.0001 3.00002L13.0001 17C13.0001 17.2652 13.1054 17.5196 13.293 17.7071C13.4805 17.8947 13.7348 18 14.0001 18ZM10.3801 21.92C10.5627 21.845 10.719 21.7176 10.8293 21.5539C10.9397 21.3902 10.9991 21.1974 11.0001 21L11.0001 7.00002C11.0001 6.7348 10.8947 6.48045 10.7072 6.29291C10.5196 6.10538 10.2653 6.00002 10.0001 6.00002C9.73484 6.00002 9.48049 6.10538 9.29295 6.29291C9.10542 6.48045 9.00006 6.7348 9.00006 7.00002L9.00006 18.59L6.71006 16.29C6.61709 16.1963 6.50649 16.1219 6.38464 16.0711C6.26278 16.0204 6.13207 15.9942 6.00006 15.9942C5.86805 15.9942 5.73734 16.0204 5.61548 16.0711C5.49362 16.1219 5.38302 16.1963 5.29006 16.29C5.19633 16.383 5.12194 16.4936 5.07117 16.6154C5.0204 16.7373 4.99426 16.868 4.99426 17C4.99426 17.132 5.0204 17.2627 5.07117 17.3846C5.12194 17.5065 5.19633 17.6171 5.29006 17.71L9.29006 21.71C9.43068 21.8488 9.60925 21.9428 9.80324 21.9801C9.99723 22.0175 10.1979 21.9966 10.3801 21.92Z" fill="white"/>
</svg>
